<svg xmlns="http://www.w3.org/2000/svg" width="186" height="13" fill="none" viewBox="0 0 186 13">
  <path fill="#f7fcfb" d="M.012 11V3.909h.75c.177 0 .286.086.328.259l.091.728c.262-.322.556-.586.882-.791a2.086 2.086 0 0 1 1.134-.308c.476 0 .861.133 1.155.399.3.266.514.625.644 1.078.103-.257.234-.478.392-.665a2.318 2.318 0 0 1 1.183-.728c.23-.056.46-.084.693-.084.374 0 .705.06.994.182.294.117.542.29.742.518.206.229.362.511.47.847.107.331.16.712.16 1.141V11H8.377V6.485c0-.555-.12-.975-.364-1.26-.242-.29-.592-.434-1.05-.434-.205 0-.4.037-.588.112-.182.07-.343.175-.483.315-.14.14-.252.317-.336.532-.079.21-.119.455-.119.735V11H4.184V6.485c0-.57-.114-.994-.343-1.274-.228-.28-.562-.42-1-.42-.309 0-.593.084-.855.252a2.776 2.776 0 0 0-.72.672V11H.011Zm15.355-3.192c-.574.019-1.064.065-1.47.14a4.14 4.14 0 0 0-.987.28c-.252.117-.436.254-.553.413a.901.901 0 0 0-.168.532c0 .187.03.348.091.483a.95.95 0 0 0 .245.336c.107.084.231.147.371.189.145.037.299.056.462.056.22 0 .42-.021.602-.063a2.32 2.32 0 0 0 .511-.196c.163-.084.317-.184.462-.301.15-.117.294-.25.434-.399v-1.47ZM11.342 4.91c.392-.378.814-.66 1.267-.847.453-.187.954-.28 1.505-.28.397 0 .75.065 1.057.196.308.13.567.313.777.546.21.233.369.516.476.847.107.331.161.695.161 1.092V11h-.553a.572.572 0 0 1-.28-.056c-.065-.042-.117-.121-.154-.238l-.14-.672a7.582 7.582 0 0 1-.546.462c-.177.13-.364.243-.56.336a3.016 3.016 0 0 1-.63.203c-.22.051-.464.077-.735.077A2.62 2.62 0 0 1 12.21 11a1.877 1.877 0 0 1-.637-.35 1.695 1.695 0 0 1-.427-.581 2.108 2.108 0 0 1-.154-.84c0-.28.077-.548.231-.805.154-.261.404-.492.75-.693.344-.2.795-.364 1.35-.49.555-.13 1.237-.205 2.044-.224v-.553c0-.55-.119-.966-.357-1.246-.238-.285-.586-.427-1.043-.427-.308 0-.567.04-.777.119a2.759 2.759 0 0 0-.539.259c-.15.093-.28.18-.392.259a.561.561 0 0 1-.322.112.372.372 0 0 1-.217-.063.66.66 0 0 1-.154-.168l-.224-.399Zm8.317.028c.154-.173.317-.329.49-.469a3.16 3.16 0 0 1 .546-.357 2.85 2.85 0 0 1 1.323-.315c.387 0 .728.065 1.022.196a1.9 1.9 0 0 1 .742.546c.2.233.352.516.455.847a3.7 3.7 0 0 1 .154 1.099V11h-1.253V6.485c0-.537-.124-.952-.37-1.246-.244-.299-.615-.448-1.114-.448-.369 0-.714.089-1.036.266a3.426 3.426 0 0 0-.882.721V11h-1.253V3.909h.75c.176 0 .286.086.328.259l.098.77Zm12.462-1.029V11h-.742c-.178 0-.29-.086-.336-.259l-.098-.763c-.308.34-.654.616-1.036.826a2.74 2.74 0 0 1-1.316.308c-.388 0-.73-.063-1.03-.189a2.077 2.077 0 0 1-.741-.546 2.346 2.346 0 0 1-.455-.847 3.865 3.865 0 0 1-.147-1.099V3.909h1.246v4.522c0 .537.121.952.364 1.246.247.294.623.441 1.127.441a2.12 2.12 0 0 0 1.029-.259c.322-.177.618-.42.889-.728V3.909h1.246Zm6.721 2.772c0-.29-.042-.553-.126-.791a1.679 1.679 0 0 0-.357-.623 1.507 1.507 0 0 0-.567-.406 1.886 1.886 0 0 0-.763-.147c-.597 0-1.07.175-1.42.525-.346.345-.56.826-.645 1.442h3.878Zm1.008 3.325a2.42 2.42 0 0 1-.553.49 3.531 3.531 0 0 1-.693.336 4.086 4.086 0 0 1-.756.196 4.41 4.41 0 0 1-.777.07 3.68 3.68 0 0 1-1.358-.245 3.075 3.075 0 0 1-1.07-.728 3.405 3.405 0 0 1-.7-1.19c-.169-.471-.253-1.013-.253-1.624 0-.495.075-.957.224-1.386.154-.43.374-.8.658-1.113a2.952 2.952 0 0 1 1.043-.742 3.388 3.388 0 0 1 1.386-.273c.425 0 .817.072 1.176.217.364.14.677.345.938.616.266.266.474.597.623.994.15.392.224.84.224 1.344 0 .196-.02.327-.063.392-.042.065-.121.098-.238.098h-4.739c.014.448.075.838.182 1.169.112.331.266.609.462.833.196.22.43.385.7.497.271.107.574.161.91.161.313 0 .581-.035.805-.105a4.039 4.039 0 0 0 .994-.469.549.549 0 0 1 .287-.112c.103 0 .182.04.238.119l.35.455ZM42.78.689V11h-1.245V.689h1.246ZM45.264 11V4.973l-.783-.091a.694.694 0 0 1-.245-.105.269.269 0 0 1-.091-.217v-.511h1.12v-.686c0-.406.055-.765.167-1.078.117-.317.28-.583.49-.798.215-.22.472-.385.77-.497A2.854 2.854 0 0 1 47.7.822c.318 0 .61.047.876.14l-.029.623c-.009.112-.072.173-.188.182-.112.01-.264.014-.455.014-.215 0-.411.028-.588.084a1.107 1.107 0 0 0-.448.273 1.268 1.268 0 0 0-.294.497c-.066.205-.099.46-.099.763v.651h2.045v.903h-2.002V11h-1.254Zm4.447 0V3.909h.749c.177 0 .287.086.329.259l.09.728c.262-.322.556-.586.883-.791a2.085 2.085 0 0 1 1.134-.308c.476 0 .86.133 1.155.399.298.266.513.625.644 1.078a2.36 2.36 0 0 1 .392-.665 2.317 2.317 0 0 1 1.183-.728c.228-.056.46-.084.693-.084.373 0 .704.06.994.182.294.117.541.29.742.518.205.229.361.511.469.847.107.331.16.712.16 1.141V11h-1.252V6.485c0-.555-.122-.975-.364-1.26-.243-.29-.593-.434-1.05-.434-.206 0-.402.037-.588.112-.182.07-.343.175-.483.315-.14.14-.252.317-.336.532-.08.21-.12.455-.12.735V11h-1.252V6.485c0-.57-.115-.994-.343-1.274-.229-.28-.563-.42-1.001-.42-.308 0-.593.084-.854.252a2.774 2.774 0 0 0-.721.672V11H49.71Zm16.495 1.155v.84H60.69v-.84h5.516Zm7.581-2.107V11H68.41v-.952h2.15V3.209c0-.205.006-.413.02-.623l-1.785 1.533a.438.438 0 0 1-.182.098.434.434 0 0 1-.315-.056.371.371 0 0 1-.098-.091l-.392-.539 2.99-2.583h1.014v9.1h1.974Zm2.976-6.132c0 .317.045.602.133.854.094.247.224.457.392.63.173.173.38.303.623.392.248.089.523.133.826.133.336 0 .633-.054.89-.161.26-.112.48-.259.657-.441.178-.182.313-.392.406-.63a2 2 0 0 0 .14-.742c0-.313-.051-.595-.154-.847a1.83 1.83 0 0 0-.413-.651 1.775 1.775 0 0 0-.637-.406 2.131 2.131 0 0 0-.805-.147 2.2 2.2 0 0 0-.84.154 1.915 1.915 0 0 0-.65.413 1.78 1.78 0 0 0-.42.637 2.185 2.185 0 0 0-.148.812Zm2.912 3.087c.103-.135.199-.264.287-.385.089-.121.173-.243.252-.364a2.789 2.789 0 0 1-.868.469 3.211 3.211 0 0 1-1.022.161c-.378 0-.737-.063-1.078-.189a2.618 2.618 0 0 1-.889-.553 2.767 2.767 0 0 1-.616-.903c-.15-.36-.224-.77-.224-1.232 0-.439.082-.85.245-1.232.164-.383.392-.716.686-1.001a3.216 3.216 0 0 1 1.05-.672 3.55 3.55 0 0 1 1.337-.245c.48 0 .917.08 1.31.238.391.159.727.38 1.007.665.28.285.495.625.644 1.022.154.397.231.835.231 1.316a4.216 4.216 0 0 1-.315 1.589 5.52 5.52 0 0 1-.364.742 11.06 11.06 0 0 1-.49.749l-2.443 3.528a.666.666 0 0 1-.259.217.915.915 0 0 1-.385.077h-1.148l3.052-3.997Zm7.274 3.073c.336 0 .64-.054.91-.161.276-.107.509-.257.7-.448.196-.191.346-.418.448-.679.108-.261.161-.546.161-.854 0-.327-.051-.62-.154-.882a1.812 1.812 0 0 0-.44-.672 1.86 1.86 0 0 0-.673-.427 2.434 2.434 0 0 0-.86-.147c-.337 0-.64.058-.91.175a2.058 2.058 0 0 0-.694.462 2.033 2.033 0 0 0-.434.672 2.163 2.163 0 0 0-.147.791c0 .322.047.616.14.882.094.266.229.495.406.686.182.191.402.34.658.448.262.103.558.154.89.154Zm-.728-5.348-.259.329c-.079.103-.156.205-.23.308a2.88 2.88 0 0 1 .783-.378c.285-.089.595-.133.931-.133.406 0 .789.068 1.148.203.36.13.672.324.938.581.271.252.486.565.644.938.159.369.238.791.238 1.267 0 .462-.084.891-.252 1.288a3.122 3.122 0 0 1-.707 1.036c-.298.294-.66.525-1.085.693-.42.168-.884.252-1.393.252-.504 0-.961-.08-1.372-.238a3.016 3.016 0 0 1-1.05-.686 3.16 3.16 0 0 1-.665-1.078 4.145 4.145 0 0 1-.23-1.421c0-.439.095-.905.286-1.4.196-.5.507-1.031.931-1.596l2.548-3.423a.852.852 0 0 1 .665-.301h1.106L86.22 4.728Zm7.337.028A6.922 6.922 0 0 1 95 4.588c.523 0 .985.077 1.386.231.402.154.735.366 1.001.637.271.27.474.59.61.959.14.369.21.77.21 1.204a3.58 3.58 0 0 1-.28 1.442 3.236 3.236 0 0 1-1.905 1.806 4.04 4.04 0 0 1-1.42.245 3.86 3.86 0 0 1-.848-.091 4.275 4.275 0 0 1-1.414-.567 3.768 3.768 0 0 1-.532-.399l.385-.532a.384.384 0 0 1 .33-.182.6.6 0 0 1 .314.112c.117.07.26.15.427.238.168.089.364.17.588.245.23.07.5.105.812.105.35 0 .665-.056.945-.168.28-.112.52-.27.721-.476.201-.21.355-.46.462-.749a2.78 2.78 0 0 0 .161-.973c0-.313-.046-.595-.14-.847a1.61 1.61 0 0 0-.413-.644 1.86 1.86 0 0 0-.686-.413 2.88 2.88 0 0 0-.966-.147 5.25 5.25 0 0 0-1.624.266l-.784-.231.805-4.69h4.753v.546a.611.611 0 0 1-.168.441c-.107.112-.294.168-.56.168h-3.15l-.462 2.632Zm12.973.49a2.681 2.681 0 0 0-.602-.063c-.35 0-.672.075-.966.224-.29.145-.539.336-.749.574-.21.238-.376.511-.497.819a2.64 2.64 0 0 0-.175.945c0 .336.077.607.231.812.154.2.382.301.686.301.144 0 .289-.023.434-.07.149-.047.291-.128.427-.245.14-.117.268-.275.385-.476.116-.2.214-.453.294-.756l.532-2.065Zm.434 1.953c-.094.355-.138.644-.133.868.004.22.039.392.105.518a.55.55 0 0 0 .287.259 1.21 1.21 0 0 0 1.05-.133c.205-.13.385-.315.539-.553.158-.238.282-.523.371-.854.093-.336.14-.707.14-1.113 0-.644-.103-1.209-.308-1.694a3.319 3.319 0 0 0-.854-1.211 3.448 3.448 0 0 0-1.281-.728 4.997 4.997 0 0 0-1.589-.245c-.626 0-1.211.119-1.757.357a4.423 4.423 0 0 0-1.428.987c-.406.42-.728.917-.966 1.491-.234.574-.35 1.2-.35 1.876 0 .793.123 1.491.371 2.093a4.376 4.376 0 0 0 1.022 1.505 4.28 4.28 0 0 0 1.526.917 5.607 5.607 0 0 0 1.876.308c.709 0 1.334-.077 1.876-.231a5.81 5.81 0 0 0 1.414-.588c.093-.056.175-.072.245-.049.07.019.121.07.154.154l.182.462c-.504.336-1.076.6-1.715.791-.635.191-1.354.287-2.156.287a6.478 6.478 0 0 1-2.261-.385 5.246 5.246 0 0 1-1.813-1.113 5.131 5.131 0 0 1-1.204-1.771c-.29-.7-.434-1.493-.434-2.38 0-.509.063-.999.189-1.47.13-.471.312-.91.546-1.316.233-.41.513-.784.84-1.12.326-.34.69-.63 1.092-.868a5.21 5.21 0 0 1 1.295-.56 5.198 5.198 0 0 1 1.456-.203c.429 0 .849.047 1.26.14.41.093.798.231 1.162.413.368.182.704.408 1.008.679a4.258 4.258 0 0 1 1.316 2.086c.126.425.189.887.189 1.386 0 .504-.073.97-.217 1.4-.14.425-.336.793-.588 1.106a2.728 2.728 0 0 1-.882.735 2.346 2.346 0 0 1-1.099.266c-.355 0-.649-.086-.882-.259-.229-.177-.376-.446-.441-.805-.266.373-.558.642-.875.805a2.22 2.22 0 0 1-1.029.245 1.78 1.78 0 0 1-.728-.14 1.435 1.435 0 0 1-.511-.399 1.814 1.814 0 0 1-.308-.609 2.768 2.768 0 0 1-.098-.756 3.399 3.399 0 0 1 .903-2.289 3.436 3.436 0 0 1 1.113-.798c.443-.205.956-.308 1.54-.308.312 0 .588.026.826.077.238.047.462.117.672.21l-.658 2.527Zm6.137-2.345c.304-.322.64-.579 1.008-.77a2.73 2.73 0 0 1 1.274-.287c.388 0 .728.065 1.022.196.299.126.546.308.742.546.201.233.353.516.455.847.103.331.154.698.154 1.099V11h-1.253V6.485c0-.537-.123-.952-.371-1.246-.242-.299-.613-.448-1.113-.448a2.12 2.12 0 0 0-1.036.266 3.436 3.436 0 0 0-.882.721V11h-1.253V.689h1.253v4.165Zm9.543-1.057c.518 0 .985.086 1.4.259.415.173.77.418 1.064.735.294.317.518.702.672 1.155.159.448.238.95.238 1.505a4.5 4.5 0 0 1-.238 1.512 3.19 3.19 0 0 1-.672 1.148 3.004 3.004 0 0 1-1.064.735 3.703 3.703 0 0 1-1.4.252c-.523 0-.994-.084-1.414-.252a3.004 3.004 0 0 1-1.064-.735c-.294-.317-.52-.7-.679-1.148a4.634 4.634 0 0 1-.231-1.512c0-.555.077-1.057.231-1.505.159-.453.385-.838.679-1.155a3.003 3.003 0 0 1 1.064-.735 3.68 3.68 0 0 1 1.414-.259Zm0 6.328c.7 0 1.223-.233 1.568-.7.345-.471.518-1.127.518-1.967 0-.845-.173-1.503-.518-1.974-.345-.471-.868-.707-1.568-.707-.355 0-.665.06-.931.182a1.759 1.759 0 0 0-.658.525 2.41 2.41 0 0 0-.392.847 4.598 4.598 0 0 0-.126 1.127c0 .84.173 1.496.518 1.967.35.467.88.7 1.589.7Zm7.008.987c-.56 0-.991-.156-1.295-.469-.298-.313-.448-.763-.448-1.351v-4.34h-.854a.291.291 0 0 1-.189-.063c-.051-.047-.077-.117-.077-.21v-.497l1.162-.147.287-2.191a.3.3 0 0 1 .091-.168.282.282 0 0 1 .196-.07h.63v2.443h2.051v.903h-2.051v4.256c0 .299.073.52.217.665a.76.76 0 0 0 .56.217 1.017 1.017 0 0 0 .588-.168c.07-.042.129-.08.175-.112.052-.037.096-.056.133-.056.066 0 .124.04.175.119l.364.595c-.214.2-.473.36-.777.476a2.686 2.686 0 0 1-.938.168Zm2.841-.112V3.909h.749c.177 0 .287.086.329.259l.091.728a3.59 3.59 0 0 1 .882-.791 2.087 2.087 0 0 1 1.134-.308c.476 0 .861.133 1.155.399.299.266.513.625.644 1.078.103-.257.233-.478.392-.665a2.305 2.305 0 0 1 1.183-.728c.229-.056.46-.084.693-.084.373 0 .705.06.994.182.294.117.541.29.742.518.205.229.362.511.469.847.107.331.161.712.161 1.141V11h-1.253V6.485c0-.555-.121-.975-.364-1.26-.243-.29-.593-.434-1.05-.434-.205 0-.401.037-.588.112-.182.07-.343.175-.483.315-.14.14-.252.317-.336.532-.079.21-.119.455-.119.735V11h-1.253V6.485c0-.57-.114-.994-.343-1.274-.229-.28-.562-.42-1.001-.42-.308 0-.593.084-.854.252a2.776 2.776 0 0 0-.721.672V11h-1.253Zm15.355-3.192c-.574.019-1.064.065-1.47.14a4.12 4.12 0 0 0-.987.28c-.252.117-.437.254-.553.413a.901.901 0 0 0-.168.532c0 .187.03.348.091.483.06.135.142.247.245.336.107.084.231.147.371.189.144.037.298.056.462.056.219 0 .42-.021.602-.063.182-.047.352-.112.511-.196.163-.084.317-.184.462-.301.149-.117.294-.25.434-.399v-1.47Zm-4.025-2.898c.392-.378.814-.66 1.267-.847.452-.187.954-.28 1.505-.28.396 0 .749.065 1.057.196.308.13.567.313.777.546.21.233.368.516.476.847.107.331.161.695.161 1.092V11h-.553a.57.57 0 0 1-.28-.056c-.066-.042-.117-.121-.154-.238l-.14-.672a7.714 7.714 0 0 1-.546.462c-.178.13-.364.243-.56.336a3.016 3.016 0 0 1-.63.203c-.22.051-.465.077-.735.077a2.62 2.62 0 0 1-.777-.112 1.874 1.874 0 0 1-.637-.35 1.682 1.682 0 0 1-.427-.581 2.103 2.103 0 0 1-.154-.84c0-.28.077-.548.231-.805.154-.261.403-.492.749-.693.345-.2.795-.364 1.351-.49.555-.13 1.236-.205 2.044-.224v-.553c0-.55-.119-.966-.357-1.246-.238-.285-.586-.427-1.043-.427-.308 0-.567.04-.777.119a2.74 2.74 0 0 0-.539.259c-.15.093-.28.18-.392.259a.563.563 0 0 1-.322.112.37.37 0 0 1-.217-.063.655.655 0 0 1-.154-.168l-.224-.399Zm8.457-1.001V11h-1.246V3.909h1.246Zm.266-2.226a.79.79 0 0 1-.077.343.957.957 0 0 1-.196.28.885.885 0 0 1-.287.189.854.854 0 0 1-.343.07.847.847 0 0 1-.616-.259.992.992 0 0 1-.189-.28.845.845 0 0 1-.07-.343c0-.121.023-.236.07-.343a.857.857 0 0 1 .189-.287.858.858 0 0 1 .273-.196.847.847 0 0 1 .343-.07c.121 0 .235.023.343.07a.833.833 0 0 1 .287.196c.084.08.149.175.196.287a.79.79 0 0 1 .077.343Zm3.069-.994V11h-1.246V.689h1.246Zm1.81 9.541c0-.121.021-.236.063-.343a.988.988 0 0 1 .182-.28.91.91 0 0 1 .28-.189.854.854 0 0 1 .343-.07.887.887 0 0 1 .812 1.232.898.898 0 0 1-.189.273.798.798 0 0 1-.28.182.847.847 0 0 1-.343.07.854.854 0 0 1-.343-.07.817.817 0 0 1-.28-.182 1.019 1.019 0 0 1-.182-.273.952.952 0 0 1-.063-.35Zm8.454-5.061a.556.556 0 0 1-.112.119.251.251 0 0 1-.154.042.426.426 0 0 1-.231-.084 3.197 3.197 0 0 0-.315-.196 2.22 2.22 0 0 0-.455-.189 2.053 2.053 0 0 0-.658-.091c-.35 0-.658.063-.924.189-.266.121-.49.299-.672.532a2.508 2.508 0 0 0-.406.847 4.293 4.293 0 0 0-.133 1.113c0 .43.049.812.147 1.148.098.331.236.611.413.84.182.224.399.397.651.518.257.117.544.175.861.175.303 0 .553-.035.749-.105a2.21 2.21 0 0 0 .483-.245 4.19 4.19 0 0 0 .322-.238.408.408 0 0 1 .259-.112c.103 0 .182.04.238.119l.35.455a2.483 2.483 0 0 1-.525.49c-.196.135-.408.25-.637.343-.224.089-.46.154-.707.196a4.502 4.502 0 0 1-.756.063c-.443 0-.856-.082-1.239-.245a2.845 2.845 0 0 1-.987-.707 3.371 3.371 0 0 1-.658-1.148c-.159-.453-.238-.968-.238-1.547 0-.527.072-1.015.217-1.463.149-.448.364-.833.644-1.155a2.948 2.948 0 0 1 1.043-.763c.415-.182.891-.273 1.428-.273.499 0 .938.082 1.316.245a3.1 3.1 0 0 1 1.015.679l-.329.448Zm4.617-1.372c.518 0 .984.086 1.4.259.415.173.77.418 1.064.735.294.317.518.702.672 1.155.158.448.238.95.238 1.505 0 .56-.08 1.064-.238 1.512a3.19 3.19 0 0 1-.672 1.148 3.004 3.004 0 0 1-1.064.735 3.707 3.707 0 0 1-1.4.252c-.523 0-.994-.084-1.414-.252a2.995 2.995 0 0 1-1.064-.735 3.263 3.263 0 0 1-.679-1.148 4.634 4.634 0 0 1-.231-1.512c0-.555.077-1.057.231-1.505.158-.453.385-.838.679-1.155a2.994 2.994 0 0 1 1.064-.735 3.68 3.68 0 0 1 1.414-.259Zm0 6.328c.7 0 1.222-.233 1.568-.7.345-.471.518-1.127.518-1.967 0-.845-.173-1.503-.518-1.974-.346-.471-.868-.707-1.568-.707-.355 0-.665.06-.931.182a1.75 1.75 0 0 0-.658.525 2.393 2.393 0 0 0-.392.847 4.598 4.598 0 0 0-.126 1.127c0 .84.172 1.496.518 1.967.35.467.879.7 1.589.7Zm4.954.875V3.909h.749c.177 0 .287.086.329.259l.091.728a3.59 3.59 0 0 1 .882-.791 2.087 2.087 0 0 1 1.134-.308c.476 0 .861.133 1.155.399.299.266.513.625.644 1.078.103-.257.233-.478.392-.665a2.305 2.305 0 0 1 1.183-.728c.229-.056.46-.084.693-.084.373 0 .705.06.994.182.294.117.541.29.742.518.205.229.362.511.469.847.107.331.161.712.161 1.141V11h-1.253V6.485c0-.555-.121-.975-.364-1.26-.243-.29-.593-.434-1.05-.434-.205 0-.401.037-.588.112-.182.07-.343.175-.483.315-.14.14-.252.317-.336.532-.079.21-.119.455-.119.735V11h-1.253V6.485c0-.57-.114-.994-.343-1.274-.229-.28-.562-.42-1.001-.42-.308 0-.593.084-.854.252a2.776 2.776 0 0 0-.721.672V11h-1.253Z"/>
</svg>
