<svg xmlns="http://www.w3.org/2000/svg" width="317" height="236" fill="none" viewBox="0 0 317 236">
  <g clip-path="url(#a)">
    <path fill="url(#b)" d="M0 12.804 29.599.054c36.98-1.838 70.783 43.55 46.223 106.599-24.56 63.048-2.038 45.198 36.135 54.849 46.757 11.821 52.084 71.388 52.084 71.388L132.988 236s-4.658-61.21-68.74-62.624C.166 171.962 51.403 127.998 49.992 72.584 48.581 17.17.116 12.821 0 12.804Z"/>
    <path fill="#45373B" d="M159.056 85.735a56.385 56.385 0 0 1 2.545 5.509 177.738 177.738 0 0 1 2.381 5.673 184.752 184.752 0 0 1 2.38-5.837 73.019 73.019 0 0 1 2.628-5.51l35.137-65.858c.438-.822.876-1.48 1.313-1.973.493-.494 1.013-.85 1.56-1.07a7.398 7.398 0 0 1 1.97-.41c.712-.055 1.56-.083 2.545-.083h16.666v118.892h-19.457V58.273c0-1.425.028-2.987.082-4.686.11-1.7.247-3.426.411-5.18l-35.876 67.421c-.821 1.535-1.889 2.741-3.202 3.618-1.314.822-2.846 1.233-4.598 1.233h-3.037c-1.751 0-3.284-.411-4.597-1.233-1.314-.877-2.381-2.083-3.202-3.618L118.336 48.16c.219 1.81.356 3.59.411 5.345.109 1.699.164 3.288.164 4.768v76.795H99.454V16.176h16.665c.986 0 1.834.028 2.545.083.712.054 1.341.192 1.889.41.602.22 1.149.576 1.642 1.07.492.493.957 1.15 1.395 1.973l35.466 66.023Z"/>
    <path fill="#7995C4" d="M317.193 18.583v12.99H260.71v41.193h48.273v12.991H260.71v50.648h-16.008V18.583h72.491Z"/>
  </g>
  <defs>
    <linearGradient id="b" x1="63.078" x2="64.237" y1="90.811" y2="265.14" gradientUnits="userSpaceOnUse">
      <stop stop-color="#603F36"/>
      <stop offset="1" stop-color="#9FA8C6" stop-opacity=".695"/>
    </linearGradient>
    <clipPath id="a">
      <path fill="#fff" d="M0 0h317v236H0z"/>
    </clipPath>
  </defs>
</svg>
